<svg xmlns="http://www.w3.org/2000/svg" viewBox="0 0 54 80"><path d="M45,39h-3.444C45.351,37.264,48,33.439,48,29v-6.465c2.405-0.817,4-1.983,4-3.535v-2c0-7.934-6.195-14.431-14-14.949V0h-2  v2.051C28.195,2.569,22,9.066,22,17v2c0,1.552,1.594,2.718,4,3.535V29c0,4.439,2.649,8.264,6.444,10H29c-4.962,0-9,4.038-9,9v7h-5  v-4c0-0.552-0.448-1-1-1h-1V36.064c3.059-1.49,5-4.584,5-8.064c0-3.449-2.289-6.261-4.431-7.743  c-0.306-0.213-0.704-0.236-1.033-0.063C12.207,20.366,12,20.707,12,21.079V27H6v-5.921c0-0.372-0.207-0.713-0.536-0.886  c-0.329-0.173-0.728-0.149-1.033,0.063C2.289,21.739,0,24.551,0,28c0,3.453,1.941,6.546,5,8.06V50H4c-0.552,0-1,0.448-1,1v12  c0,0.552,0.448,1,1,1h10h6h1h1v-1v-0.586l6.707-6.707C28.895,55.52,29,55.265,29,55V41h2v9c0,0.552,0.448,1,1,1h10  c0.552,0,1-0.448,1-1v-9h2v14c0,0.265,0.105,0.52,0.293,0.707L52,62.414V64h2V48C54,43.038,49.962,39,45,39z M37,22  c-6.1,0-10.087-1.063-11.888-2h23.775C47.087,20.937,43.1,22,37,22z M49.364,13H46c-1.654,0-3-1.346-3-3V5.479  C45.995,7.045,48.306,9.74,49.364,13z M38,15V4.051c1.039,0.079,2.044,0.275,3,0.585V10c0,2.757,2.243,5,5,5h3.83  c0.102,0.654,0.17,1.318,0.17,2v1H24v-1c0-0.682,0.069-1.346,0.17-2H28c2.757,0,5-2.243,5-5V4.636c0.956-0.31,1.961-0.506,3-0.585  V15H38z M31,5.479V10c0,1.654-1.346,3-3,3h-3.364C25.694,9.74,28.005,7.045,31,5.479z M28,29v-5.903C30.656,23.706,33.878,24,37,24  s6.344-0.294,9-0.903V29c0,4.962-4.038,9-9,9S28,33.962,28,29z M6.376,34.486C3.717,33.409,2,30.863,2,28  c0-1.835,0.902-3.483,2-4.706V28c0,0.552,0.448,1,1,1h8c0.552,0,1-0.448,1-1v-4.706c1.098,1.223,2,2.871,2,4.706  c0,2.888-1.714,5.433-4.368,6.483C11.25,34.634,11,35.003,11,35.413V50H7V35.413C7,35.006,6.753,34.639,6.376,34.486z M5,60h2v-2H5  v-2h2v-2H5v-2h1h6h1v4v6H5V60z M20,62h-5v-5h5V62z M27,54.586l-5,5V56v-8c0-3.165,2.112-5.842,5-6.705V54.586z M41,49h-8v-8h8V49z   M47,54.586V41.295c2.888,0.863,5,3.541,5,6.705v11.586L47,54.586z"/><path d="M44,29h-2c0,2.757-2.243,5-5,5v2C40.86,36,44,32.86,44,29z"/><path d="M42,53H32c-0.552,0-1,0.448-1,1v5c0,2.757,2.243,5,5,5h2c2.757,0,5-2.243,5-5v-5C43,53.448,42.552,53,42,53z M41,59  c0,1.654-1.346,3-3,3h-2c-1.654,0-3-1.346-3-3v-4h8V59z"/></svg>